<svg width="24" height="24" viewBox="0 0 24 24" fill="none" xmlns="http://www.w3.org/2000/svg">
<path d="M12 1C5.9225 1 1 5.8176 1 11.7656C1 16.5294 4.14875 20.553 8.52125 21.9794C9.07125 22.0736 9.2775 21.7507 9.2775 21.4681C9.2775 21.2124 9.26375 20.3646 9.26375 19.463C6.5 19.9609 5.785 18.8036 5.565 18.198C5.44125 17.8885 4.905 16.9331 4.4375 16.6774C4.0525 16.4755 3.5025 15.9776 4.42375 15.9642C5.29 15.9507 5.90875 16.7447 6.115 17.0676C7.105 18.6959 8.68625 18.2384 9.31875 17.9558C9.415 17.256 9.70375 16.785 10.02 16.5159C7.5725 16.2468 5.015 15.3182 5.015 11.2004C5.015 10.0296 5.44125 9.06073 6.1425 8.30714C6.0325 8.038 5.6475 6.93453 6.2525 5.45426C6.2525 5.45426 7.17375 5.17166 9.2775 6.55773C10.1575 6.31551 11.0925 6.19439 12.0275 6.19439C12.9625 6.19439 13.8975 6.31551 14.7775 6.55773C16.8813 5.15821 17.8025 5.45426 17.8025 5.45426C18.4075 6.93453 18.0225 8.038 17.9125 8.30714C18.6138 9.06073 19.04 10.0162 19.04 11.2004C19.04 15.3317 16.4688 16.2468 14.0213 16.5159C14.42 16.8523 14.7638 17.4983 14.7638 18.5075C14.7638 19.9474 14.75 21.1047 14.75 21.4681C14.75 21.7507 14.9563 22.0871 15.5063 21.9794C17.6901 21.2581 19.5877 19.8846 20.932 18.0524C22.2764 16.2201 22.9996 14.0213 23 11.7656C23 5.8176 18.0775 1 12 1Z" fill="white"/>
</svg>
