<svg width="24" height="24" viewBox="0 0 24 24" fill="none" xmlns="http://www.w3.org/2000/svg">
<mask id="path-1-inside-1_64_318" fill="white">
<path fill-rule="evenodd" clip-rule="evenodd" d="M2.00024 7.15124V16.0001C2.00024 17.6569 3.34339 19.0001 5.00024 19.0001H19.0002C20.6571 19.0001 22.0002 17.6569 22.0002 16.0001V7.15198L14.728 14.4242C13.2217 15.9305 10.7795 15.9305 9.2732 14.4242L2.00024 7.15124ZM21.5726 5.65083C21.5317 5.76205 21.4654 5.86854 21.3707 5.96323L13.8189 13.5151C12.8147 14.5193 11.1865 14.5193 10.1823 13.5151L2.63052 5.96323C2.53565 5.86837 2.46926 5.76168 2.4284 5.65024C2.88901 4.95697 3.67701 4.5 4.57174 4.5H19.4289C20.3239 4.5 21.1121 4.95722 21.5726 5.65083Z"/>
</mask>
<path fill-rule="evenodd" clip-rule="evenodd" d="M2.00024 7.15124V16.0001C2.00024 17.6569 3.34339 19.0001 5.00024 19.0001H19.0002C20.6571 19.0001 22.0002 17.6569 22.0002 16.0001V7.15198L14.728 14.4242C13.2217 15.9305 10.7795 15.9305 9.2732 14.4242L2.00024 7.15124ZM21.5726 5.65083C21.5317 5.76205 21.4654 5.86854 21.3707 5.96323L13.8189 13.5151C12.8147 14.5193 11.1865 14.5193 10.1823 13.5151L2.63052 5.96323C2.53565 5.86837 2.46926 5.76168 2.4284 5.65024C2.88901 4.95697 3.67701 4.5 4.57174 4.5H19.4289C20.3239 4.5 21.1121 4.95722 21.5726 5.65083Z" fill="white"/>
<path d="M2.00024 7.15124L2.3538 6.79768L1.50024 5.94413V7.15124H2.00024ZM22.0002 7.15198H22.5002V5.94487L21.6467 6.79842L22.0002 7.15198ZM14.728 14.4242L15.0816 14.7777H15.0816L14.728 14.4242ZM9.2732 14.4242L8.91965 14.7777L9.2732 14.4242ZM21.3707 5.96323L21.7243 6.31679L21.7243 6.31678L21.3707 5.96323ZM21.5726 5.65083L22.0419 5.82331L22.1294 5.5854L21.9891 5.37425L21.5726 5.65083ZM13.8189 13.5151L13.4653 13.1615L13.8189 13.5151ZM10.1823 13.5151L9.82879 13.8686L10.1823 13.5151ZM2.63052 5.96323L2.98407 5.60968L2.98407 5.60968L2.63052 5.96323ZM2.4284 5.65024L2.01194 5.37354L1.87176 5.58453L1.95896 5.82236L2.4284 5.65024ZM2.50024 16.0001V7.15124H1.50024V16.0001H2.50024ZM5.00024 18.5001C3.61953 18.5001 2.50024 17.3808 2.50024 16.0001H1.50024C1.50024 17.9331 3.06725 19.5001 5.00024 19.5001V18.5001ZM19.0002 18.5001H5.00024V19.5001H19.0002V18.5001ZM21.5002 16.0001C21.5002 17.3808 20.381 18.5001 19.0002 18.5001V19.5001C20.9332 19.5001 22.5002 17.9331 22.5002 16.0001H21.5002ZM21.5002 7.15198V16.0001H22.5002V7.15198H21.5002ZM21.6467 6.79842L14.3745 14.0706L15.0816 14.7777L22.3538 7.50553L21.6467 6.79842ZM14.3745 14.0706C13.0634 15.3817 10.9378 15.3817 9.62675 14.0706L8.91965 14.7777C10.6212 16.4793 13.38 16.4793 15.0816 14.7777L14.3745 14.0706ZM9.62675 14.0706L2.3538 6.79768L1.64669 7.50479L8.91965 14.7777L9.62675 14.0706ZM21.7243 6.31678C21.8699 6.1712 21.9759 6.00305 22.0419 5.82331L21.1033 5.47835C21.0876 5.52106 21.061 5.56588 21.0172 5.60968L21.7243 6.31678ZM14.1724 13.8686L21.7243 6.31679L21.0172 5.60968L13.4653 13.1615L14.1724 13.8686ZM9.82879 13.8686C11.0283 15.0681 12.973 15.0681 14.1724 13.8686L13.4653 13.1615C12.6564 13.9704 11.3448 13.9704 10.5359 13.1615L9.82879 13.8686ZM2.27696 6.31679L9.82879 13.8686L10.5359 13.1615L2.98407 5.60968L2.27696 6.31679ZM1.95896 5.82236C2.02499 6.00245 2.13112 6.17094 2.27696 6.31679L2.98407 5.60968C2.94019 5.5658 2.91353 5.5209 2.89784 5.47812L1.95896 5.82236ZM4.57174 4C3.50255 4 2.56128 4.54673 2.01194 5.37354L2.84486 5.92694C3.21675 5.3672 3.85147 5 4.57174 5V4ZM19.4289 4H4.57174V5H19.4289V4ZM21.9891 5.37425C21.4399 4.54704 20.4984 4 19.4289 4V5C20.1494 5 20.7842 5.36741 21.1561 5.92741L21.9891 5.37425Z" fill="white" fill-opacity="0.3" mask="url(#path-1-inside-1_64_318)"/>
</svg>
