<svg width="24" height="24" viewBox="0 0 24 24" fill="none" xmlns="http://www.w3.org/2000/svg">
<path d="M13.9475 5.07318C13.2466 5.77616 13.2466 6.91601 13.9475 7.619L15.2166 8.89191C15.4712 9.14728 15.7832 9.3099 16.1109 9.37978C16.4616 9.45456 16.7845 9.77059 16.6883 10.1163C16.2434 11.7154 15.3895 13.1703 14.2115 14.3365C13.0334 15.5028 11.5718 16.3401 9.97178 16.7653C9.683 16.842 9.42097 16.5757 9.37977 16.2796C9.32769 15.9054 9.15817 15.5445 8.87127 15.2568L7.60217 13.9838C6.90129 13.2808 5.76485 13.2808 5.06397 13.9838L2.52566 16.5297C1.82478 17.2327 1.82478 18.3726 2.52566 19.0755C3.0367 19.5881 3.52271 20.229 4.13983 20.6193C4.80193 21.0187 5.6668 20.9644 6.43948 20.99C7.71553 21.0323 9.70468 20.9469 10.9866 20.6062C13.2539 20.0036 15.3249 18.8171 16.9943 17.1645C18.6638 15.5119 19.8736 13.4504 20.5042 11.1844C20.9243 9.67415 21 8.36072 21 6.55509C21 5.65227 20.9873 4.76143 20.506 4.05708C20.4441 3.96664 20.3732 3.8806 20.2931 3.80026L19.024 2.52724C18.3231 1.82425 17.1866 1.82425 16.4858 2.52724L13.9475 5.07318Z" fill="white"/>
<path d="M10.036 17.0069L10.036 17.0069C11.6783 16.5705 13.1783 15.7111 14.3873 14.5142C15.5964 13.3173 16.4727 11.8243 16.9292 10.1833C17.0048 9.91133 16.9097 9.66223 16.7572 9.48393C16.607 9.30836 16.3891 9.18348 16.163 9.13527C15.8813 9.0752 15.6131 8.93552 15.3936 8.7154L14.1245 7.44249C13.5209 6.83707 13.5209 5.8551 14.1245 5.24969L16.6628 2.70375C17.266 2.09875 18.2437 2.09875 18.8469 2.70374L20.116 3.97677L20.1161 3.9768C20.1852 4.04618 20.2464 4.12033 20.2995 4.19813C20.7301 4.82816 20.75 5.63712 20.75 6.55509C20.75 8.35342 20.6743 9.63997 20.2633 11.1173C19.6444 13.3416 18.4569 15.3649 16.8184 16.9868L16.8184 16.9868C15.18 18.6088 13.1475 19.7732 10.9224 20.3646C9.67575 20.696 7.71538 20.7822 6.44776 20.7402C6.3222 20.736 6.19842 20.7339 6.07589 20.7318C5.80408 20.7271 5.53841 20.7226 5.27306 20.6961C4.89584 20.6583 4.55668 20.5781 4.2712 20.4066C3.98903 20.2277 3.73042 19.9876 3.47319 19.72C3.36972 19.6124 3.26047 19.4935 3.14978 19.3731C2.99981 19.21 2.8472 19.044 2.7027 18.899C2.0991 18.2936 2.0991 17.3116 2.7027 16.7062L5.24101 14.1603C5.8442 13.5553 6.82193 13.5553 7.42512 14.1603C7.42513 14.1603 7.42513 14.1603 7.42513 14.1603L8.69422 15.4333L8.69425 15.4333C8.94146 15.6812 9.08729 15.9917 9.13215 16.314C9.16082 16.52 9.26506 16.7154 9.41772 16.8498C9.57316 16.9867 9.79442 17.0711 10.036 17.0069Z" stroke="white" stroke-opacity="0.3" stroke-width="0.5"/>
</svg>
