<svg width="24" height="24" viewBox="0 0 24 24" fill="none" xmlns="http://www.w3.org/2000/svg">
<path d="M21.0399 3.02493C21.0399 3.02493 23.1674 2.2025 22.9894 4.19967C22.9308 5.02209 22.3991 7.90085 21.9851 11.0141L20.5668 20.2372C20.5668 20.2372 20.4485 21.5884 19.3845 21.8234C18.321 22.058 16.7253 21.001 16.4296 20.766C16.193 20.5895 11.9972 17.9458 10.5198 16.6538C10.1058 16.301 9.63264 15.5964 10.5789 14.7739L16.7839 8.89916C17.4931 8.19454 18.2022 6.54969 15.2473 8.54685L6.97289 14.1274C6.97289 14.1274 6.02717 14.7153 4.25455 14.1866L0.412512 13.0113C0.412512 13.0113 -1.0058 12.1302 1.41738 11.2492C7.32775 8.48822 14.5973 5.66863 21.0388 3.02493H21.0399Z" fill="white"/>
</svg>
