<svg width="240" height="24" viewBox="0 0 240 24" fill="none" xmlns="http://www.w3.org/2000/svg">
<path fill-rule="evenodd" clip-rule="evenodd" d="M34.3797 4L18.1926 11.7818L2.07711 4L0 6.10909L12.5343 20L18.1926 14.2545L23.9226 20L36.4568 6.10909L34.3797 4ZM45.9367 18.567V8.44487H48.6314V9.49757C49.3899 9.07244 50.1084 8.74853 50.7871 8.54609C51.4658 8.34365 52.1244 8.24242 52.7233 8.24242C52.9229 8.24242 53.1424 8.26267 53.362 8.30316C53.4012 8.3111 53.4411 8.31904 53.4818 8.32714C53.6485 8.36031 53.8282 8.39605 54.0207 8.44487V10.9349C53.9346 10.91 53.8333 10.8927 53.7215 10.8736C53.652 10.8618 53.5783 10.8492 53.5017 10.8337C53.3021 10.7932 53.0826 10.773 52.863 10.773C52.1843 10.773 51.5256 10.8944 50.8869 11.0969C50.2482 11.2993 49.5296 11.6435 48.7312 12.0888V18.567H45.9367ZM63.6056 18.567V16.6438H63.5058C63.1066 17.3928 62.5677 17.9394 61.889 18.2633C61.2104 18.6075 60.3521 18.7695 59.3141 18.7695C58.5556 18.7695 57.877 18.648 57.2382 18.4051C56.5995 18.1621 56.0406 17.818 55.5815 17.3726C55.1224 16.9272 54.7631 16.4009 54.5036 15.7733C54.2442 15.166 54.1244 14.4777 54.1244 13.7084C54.1244 12.8986 54.2242 12.1698 54.4438 11.5018C54.6434 10.8337 54.9827 10.2466 55.4418 9.76075C55.8809 9.27488 56.4598 8.91048 57.1584 8.64731C57.837 8.38413 58.6554 8.24242 59.6135 8.24242C60.2123 8.24242 60.8112 8.3234 61.4299 8.44487C62.0487 8.58658 62.7473 8.78902 63.5058 9.0522V4.59845H66.3003V18.567H63.6056ZM63.5058 13.1011V11.684C62.9869 11.4208 62.4479 11.1981 61.8691 11.0361C61.2902 10.8742 60.7114 10.773 60.1125 10.773C59.0347 10.773 58.2562 10.9956 57.7572 11.441C57.2582 11.8864 57.0187 12.5747 57.0187 13.5059C57.0187 13.9311 57.0586 14.3157 57.1783 14.6396C57.2782 14.9838 57.4578 15.2672 57.6973 15.5101C57.9369 15.7531 58.2562 15.9353 58.6554 16.0567C59.0546 16.1782 59.5736 16.2389 60.1724 16.2389C61.2303 16.2389 62.0487 15.9757 62.6276 15.4291C63.2064 14.8825 63.5058 14.1133 63.5058 13.1011ZM78.3733 15.4291V18.0609C77.8144 18.3038 77.1557 18.4658 76.3972 18.5873C75.6387 18.7087 74.8802 18.7695 74.0818 18.7695C73.1037 18.7695 72.2454 18.648 71.4869 18.3848C70.7284 18.1419 70.0897 17.7775 69.5707 17.3119C69.0517 16.8665 68.6525 16.2996 68.393 15.6518C68.1136 15.004 67.9938 14.2955 67.9938 13.5059C67.9938 12.7367 68.1136 12.0079 68.393 11.36C68.6525 10.7122 69.0517 10.1656 69.5707 9.70001C70.0897 9.25464 70.7284 8.89024 71.4869 8.62707C72.2454 8.38413 73.1037 8.24242 74.0818 8.24242C74.8802 8.24242 75.6387 8.30316 76.3972 8.42462C77.1557 8.54609 77.8144 8.72829 78.3733 8.95097V11.5827C77.6547 11.2791 76.9761 11.0766 76.2974 10.9552C75.6187 10.8337 74.96 10.773 74.3612 10.773C73.1436 10.773 72.2654 11.0159 71.7065 11.5018C71.1476 11.9876 70.8881 12.6557 70.8881 13.5059C70.8881 14.3764 71.1476 15.0445 71.7065 15.5304C72.2654 16.0162 73.1436 16.2389 74.3612 16.2389C74.96 16.2389 75.6187 16.1984 76.2974 16.077C76.9761 15.9555 77.6547 15.7531 78.3733 15.4291ZM82.8566 18.567H80.0621V4.59845H82.8566V18.567ZM84.9431 18.567V8.44487H87.6378V9.49757C88.3963 9.07244 89.1148 8.74853 89.7935 8.54609C90.4722 8.34365 91.1309 8.24242 91.7297 8.24242C91.9293 8.24242 92.1488 8.26267 92.3684 8.30316C92.4076 8.3111 92.4475 8.31905 92.4882 8.32715C92.655 8.36032 92.8346 8.39605 93.0271 8.44487V10.9349C92.941 10.91 92.8397 10.8927 92.728 10.8736C92.6584 10.8618 92.5847 10.8492 92.5081 10.8337C92.3085 10.7932 92.089 10.773 91.8694 10.773C91.1907 10.773 90.532 10.8944 89.8933 11.0969C89.2546 11.2993 88.536 11.6435 87.7376 12.0888V18.567H84.9431ZM92.3813 18.3443C92.062 18.0609 91.9223 17.6965 91.9223 17.2106C91.9223 16.7653 92.062 16.3806 92.3813 16.0972C92.6808 15.8138 93.0999 15.6721 93.6189 15.6721C94.1379 15.6721 94.5371 15.8138 94.8564 16.0972C95.1559 16.3806 95.3155 16.7653 95.3155 17.2106C95.3155 17.6965 95.1559 18.0609 94.8564 18.3443C94.5371 18.6277 94.1379 18.7695 93.6189 18.7695C93.0999 18.7695 92.6808 18.6277 92.3813 18.3443ZM96.7128 18.0609V15.5304C97.4314 15.8745 98.2098 16.0972 99.0082 16.1984C99.8067 16.2996 100.645 16.3401 101.503 16.3401C102.142 16.3401 102.621 16.2996 102.94 16.1782C103.24 16.077 103.4 15.8948 103.4 15.6113C103.4 15.4899 103.32 15.3887 103.2 15.3077C103.08 15.2267 102.921 15.1457 102.741 15.085C102.541 15.0243 102.342 14.9635 102.122 14.923C101.962 14.8935 101.812 14.8531 101.681 14.8178C101.632 14.8047 101.586 14.7923 101.543 14.7813L99.8466 14.3562C99.2478 14.2145 98.7487 14.0323 98.3495 13.8096C97.9304 13.6072 97.591 13.3642 97.3316 13.1011C97.0721 12.8379 96.8924 12.5545 96.7727 12.2305C96.6529 11.9269 96.613 11.603 96.613 11.2791C96.613 10.9349 96.6928 10.5705 96.8725 10.2061C97.0521 9.84172 97.3316 9.51781 97.6908 9.23439C98.0501 8.95097 98.5292 8.70804 99.0881 8.52584C99.647 8.34365 100.326 8.24242 101.104 8.24242C102.002 8.24242 102.841 8.30316 103.599 8.42462C104.358 8.54609 105.036 8.72829 105.595 8.95097V11.4815C104.877 11.1778 104.178 10.9754 103.499 10.8539C102.821 10.7325 102.122 10.6717 101.404 10.6717C100.805 10.6717 100.346 10.7325 100.026 10.8337C99.7068 10.9552 99.5472 11.1374 99.5472 11.4005C99.5472 11.522 99.6071 11.6232 99.7268 11.7042C99.8466 11.7852 100.006 11.8662 100.206 11.9269C100.386 11.9876 100.585 12.0483 100.805 12.0888L101.404 12.2103L103.06 12.6152C103.659 12.7771 104.158 12.9593 104.577 13.1618C104.976 13.3845 105.316 13.6274 105.575 13.8906C105.815 14.1538 105.994 14.4372 106.114 14.7611C106.234 15.085 106.294 15.4089 106.294 15.7328C106.294 16.0567 106.214 16.4009 106.054 16.7653C105.895 17.1297 105.615 17.4536 105.256 17.737C104.877 18.0407 104.398 18.2836 103.799 18.486C103.2 18.6885 102.481 18.7695 101.603 18.7695C100.605 18.7695 99.6669 18.729 98.8286 18.6075C97.9703 18.5063 97.2717 18.3241 96.7128 18.0609ZM117.585 15.4291V18.0609C117.026 18.3038 116.367 18.4658 115.609 18.5873C114.85 18.7087 114.092 18.7695 113.293 18.7695C112.315 18.7695 111.457 18.648 110.698 18.3848C109.94 18.1419 109.301 17.7775 108.782 17.3119C108.263 16.8665 107.864 16.2996 107.605 15.6518C107.325 15.004 107.205 14.2955 107.205 13.5059C107.205 12.7367 107.325 12.0079 107.605 11.36C107.864 10.7122 108.263 10.1656 108.782 9.70001C109.301 9.25464 109.94 8.89024 110.698 8.62707C111.457 8.38413 112.315 8.24242 113.293 8.24242C114.092 8.24242 114.85 8.30316 115.609 8.42462C116.367 8.54609 117.026 8.72829 117.585 8.95097V11.5827C116.866 11.2791 116.188 11.0766 115.509 10.9552C114.83 10.8337 114.172 10.773 113.573 10.773C112.355 10.773 111.477 11.0159 110.918 11.5018C110.359 11.9876 110.1 12.6557 110.1 13.5059C110.1 14.3764 110.359 15.0445 110.918 15.5304C111.477 16.0162 112.355 16.2389 113.573 16.2389C114.172 16.2389 114.83 16.1984 115.509 16.077C116.188 15.9555 116.866 15.7531 117.585 15.4291ZM122.068 18.567H119.274V4.59845H122.068V9.25464C122.567 9.0522 123.006 8.89024 123.405 8.76878C123.785 8.64731 124.144 8.54609 124.463 8.46511C124.783 8.38413 125.062 8.34365 125.342 8.30316C125.621 8.26267 125.9 8.24242 126.2 8.24242C126.839 8.24242 127.417 8.34365 127.936 8.52584C128.455 8.70804 128.915 8.97122 129.294 9.29513C129.653 9.63928 129.952 10.0442 130.152 10.5098C130.352 10.9956 130.451 11.522 130.451 12.0888V18.567H127.657V13.1011C127.657 12.3723 127.457 11.8054 127.058 11.4005C126.659 10.9956 126.1 10.773 125.382 10.773C125.022 10.773 124.563 10.8742 123.984 11.0564C123.385 11.2588 122.747 11.522 122.068 11.8864V18.567ZM132.361 15.6923C132.082 15.0445 131.942 14.3157 131.942 13.5059C131.942 12.6962 132.082 11.9674 132.361 11.3196C132.641 10.6717 133.04 10.1251 133.559 9.65952C134.078 9.21415 134.717 8.84975 135.475 8.60682C136.234 8.36389 137.072 8.24242 138.03 8.24242C138.968 8.24242 139.807 8.36389 140.565 8.60682C141.324 8.84975 141.962 9.21415 142.481 9.65952C143 10.1251 143.42 10.6717 143.699 11.3196C143.978 11.9674 144.118 12.6962 144.118 13.5059C144.118 14.3157 143.978 15.0445 143.699 15.6923C143.42 16.3401 143 16.907 142.481 17.3524C141.962 17.818 141.324 18.1621 140.565 18.4051C139.807 18.648 138.968 18.7695 138.03 18.7695C137.072 18.7695 136.234 18.648 135.475 18.4051C134.717 18.1621 134.078 17.818 133.559 17.3524C133.04 16.907 132.641 16.3401 132.361 15.6923ZM138.03 10.773C135.894 10.773 134.837 11.684 134.837 13.5059C134.837 15.3279 135.894 16.2389 138.03 16.2389C140.146 16.2389 141.224 15.3279 141.224 13.5059C141.224 11.684 140.146 10.773 138.03 10.773ZM145.744 15.6923C145.464 15.0445 145.324 14.3157 145.324 13.5059C145.324 12.6962 145.464 11.9674 145.744 11.3196C146.023 10.6717 146.422 10.1251 146.941 9.65952C147.46 9.21415 148.099 8.84975 148.857 8.60682C149.616 8.36389 150.454 8.24242 151.412 8.24242C152.35 8.24242 153.189 8.36389 153.947 8.60682C154.706 8.84975 155.345 9.21415 155.864 9.65952C156.383 10.1251 156.802 10.6717 157.081 11.3196C157.361 11.9674 157.5 12.6962 157.5 13.5059C157.5 14.3157 157.361 15.0445 157.081 15.6923C156.802 16.3401 156.383 16.907 155.864 17.3524C155.345 17.818 154.706 18.1621 153.947 18.4051C153.189 18.648 152.35 18.7695 151.412 18.7695C150.454 18.7695 149.616 18.648 148.857 18.4051C148.099 18.1621 147.46 17.818 146.941 17.3524C146.422 16.907 146.023 16.3401 145.744 15.6923ZM151.412 10.773C149.277 10.773 148.219 11.684 148.219 13.5059C148.219 15.3279 149.277 16.2389 151.412 16.2389C153.528 16.2389 154.606 15.3279 154.606 13.5059C154.606 11.684 153.528 10.773 151.412 10.773ZM162 18.567H159.206V4.59845H162V18.567Z" fill="white"/>
<path d="M189.9 11.4V19H192.7V11.4H196.2V9H192.7C192.7 8.48 192.84 8.1 193.16 7.86C193.46 7.62 193.94 7.5 194.6 7.5C194.86 7.5 195.14 7.52 195.44 7.54C195.72 7.58 196.02 7.62 196.3 7.7V5.2C196.06 5.12 195.74 5.08 195.38 5.04C195 5.02 194.64 5 194.3 5C193.54 5 192.9 5.1 192.34 5.28C191.78 5.48 191.34 5.74 190.98 6.06C190.62 6.4 190.34 6.8 190.16 7.26C189.98 7.74 189.9 8.24 189.9 8.8V9H188.4V11.4H189.9Z" fill="#F51B1B"/>
<path d="M197.198 9V19H199.998V12.6C200.798 12.16 201.518 11.82 202.158 11.62C202.798 11.42 203.458 11.3 204.138 11.3C204.358 11.3 204.578 11.32 204.778 11.36C204.978 11.4 205.158 11.42 205.298 11.46V9C205.058 8.94 204.838 8.9 204.638 8.86C204.418 8.82 204.198 8.8 203.998 8.8C203.398 8.8 202.738 8.9 202.058 9.1C201.378 9.3 200.658 9.62 199.898 10.04V9H197.198Z" fill="#F51B1B"/>
<path d="M205.402 14C205.402 14.8 205.542 15.52 205.822 16.16C206.102 16.8 206.502 17.36 207.022 17.8C207.542 18.26 208.182 18.6 208.942 18.84C209.702 19.08 210.542 19.2 211.502 19.2C212.442 19.2 213.282 19.08 214.042 18.84C214.802 18.6 215.442 18.26 215.962 17.8C216.482 17.36 216.902 16.8 217.182 16.16C217.462 15.52 217.602 14.8 217.602 14C217.602 13.2 217.462 12.48 217.182 11.84C216.902 11.2 216.482 10.66 215.962 10.2C215.442 9.76 214.802 9.4 214.042 9.16C213.282 8.92 212.442 8.8 211.502 8.8C210.542 8.8 209.702 8.92 208.942 9.16C208.182 9.4 207.542 9.76 207.022 10.2C206.502 10.66 206.102 11.2 205.822 11.84C205.542 12.48 205.402 13.2 205.402 14ZM208.302 14C208.302 12.2 209.362 11.3 211.502 11.3C213.622 11.3 214.702 12.2 214.702 14C214.702 15.8 213.622 16.7 211.502 16.7C209.362 16.7 208.302 15.8 208.302 14Z" fill="#F51B1B"/>
<path d="M219.211 9V19H222.011V12.4C222.691 12.04 223.331 11.78 223.931 11.58C224.511 11.4 224.971 11.3 225.331 11.3C226.051 11.3 226.611 11.52 227.011 11.92C227.411 12.32 227.611 12.88 227.611 13.6V19H230.411V12.6C230.411 12.04 230.311 11.52 230.111 11.04C229.911 10.58 229.611 10.18 229.251 9.84C228.871 9.52 228.411 9.26 227.891 9.08C227.371 8.9 226.791 8.8 226.151 8.8C225.851 8.8 225.571 8.82 225.291 8.86C225.011 8.9 224.691 8.94 224.371 9.02C224.051 9.1 223.691 9.22 223.291 9.34C222.891 9.48 222.431 9.64 221.911 9.84V9H219.211Z" fill="#F51B1B"/>
<path d="M233.307 11.4V15.2C233.307 16.44 233.647 17.4 234.367 18.12C235.087 18.84 236.187 19.2 237.707 19.2C237.867 19.2 238.067 19.2 238.267 19.18C238.467 19.18 238.667 19.16 238.867 19.14C239.067 19.12 239.247 19.1 239.427 19.06C239.607 19.02 239.767 18.98 239.907 18.92V16.42C239.587 16.54 239.267 16.6 238.927 16.64C238.567 16.68 238.267 16.7 238.007 16.7C237.347 16.7 236.867 16.58 236.567 16.34C236.247 16.1 236.107 15.64 236.107 15V11.4H239.807V9H236.107V6.1H233.307V9H231.507V11.4H233.307Z" fill="#F51B1B"/>
<path fill-rule="evenodd" clip-rule="evenodd" d="M176.233 12L181 12C175.789 12.6 170.744 17.4 170 24L170 12L170 12L170 -4.80825e-07C170.744 6.60003 175.789 11.4 181 12L176.233 12Z" fill="#F51B1B"/>
</svg>
